<?xml version="1.0" standalone="no"?><!DOCTYPE svg PUBLIC "-//W3C//DTD SVG 1.1//EN" "http://www.w3.org/Graphics/SVG/1.1/DTD/svg11.dtd"><svg t="1644935466493" class="icon" viewBox="0 0 1458 1024" version="1.1" xmlns="http://www.w3.org/2000/svg" p-id="2810" xmlns:xlink="http://www.w3.org/1999/xlink" width="284.765625" height="200"><defs><style type="text/css"></style></defs><path d="M859.025871 326.00727H532.580714c-12.589267 0-22.441736-9.85247-22.441736-22.441737s9.85247-22.441736 22.441736-22.441736h326.445157c12.589267 0 22.441736 9.85247 22.441736 22.441736s-9.85247 22.441736-22.441736 22.441737zM859.025871 476.640582H532.580714c-12.589267 0-22.441736-9.85247-22.441736-22.441737s9.85247-22.441736 22.441736-22.441736h326.445157c12.589267 0 22.441736 9.85247 22.441736 22.441736s-9.85247 22.441736-22.441736 22.441737z" fill="#999899" p-id="2811"></path><path d="M612.276245 948.245456H367.935001c-12.589267 0-22.441736-9.85247-22.441736-22.441736V99.40047c0-12.589267 9.85247-22.441736 22.441736-22.441736h642.599957c12.589267 0 22.441736 9.85247 22.441736 22.441736v242.589695c0 12.589267-9.85247 22.441736-22.441736 22.441736s-22.441736-9.85247-22.441736-22.441736V121.842207h-597.716485v781.519777h222.00898c12.589267 0 22.441736 9.85247 22.441736 22.441736-0.109472 12.479795-9.961941 22.441736-22.551208 22.441736z" fill="#999899" p-id="2812"></path><path d="M804.289929 623.113962H529.077614c-10.618773 0-18.938636-8.319863-18.938636-18.938636 0-10.618773 8.319863-18.938636 18.938636-18.938636h275.212315c10.618773 0 18.938636 8.319863 18.938636 18.938636 0 10.618773-8.319863 18.938636-18.938636 18.938636z" fill="#999899" p-id="2813"></path><path d="M1057.279453 899.311524L934.342527 861.543725l109.690828-128.519992-140.780843 119.652769-115.273893-34.374171 332.466111-159.610007-63.165277 240.6192zM930.948899 946.931794v-66.449434l39.847766 11.056661-39.847766 55.392773z m0 0" fill="#323333" p-id="2814"></path></svg>