<?xml version="1.0" standalone="no"?><!DOCTYPE svg PUBLIC "-//W3C//DTD SVG 1.1//EN" "http://www.w3.org/Graphics/SVG/1.1/DTD/svg11.dtd"><svg t="1644932008894" class="icon" viewBox="0 0 1024 1024" version="1.1" xmlns="http://www.w3.org/2000/svg" p-id="2067" xmlns:xlink="http://www.w3.org/1999/xlink" width="200" height="200"><defs><style type="text/css"></style></defs><path d="M512 0c24.95 0 45.45 19.04 47.78 43.38L560 48v352c0 26.51-21.49 48-48 48-24.95 0-45.45-19.04-47.78-43.38L464 400V48c0-26.51 21.49-48 48-48zM330.04 82.34c12.82 23.21 4.39 52.41-18.81 65.22C179.49 220.31 96 358.79 96 512c0 229.75 186.25 416 416 416s416-186.25 416-416c0-153.19-83.48-291.67-215.19-364.42-23.2-12.82-31.63-42.02-18.81-65.22 12.82-23.21 42.02-31.63 65.22-18.81C921.23 153.03 1024 323.51 1024 512c0 282.77-229.23 512-512 512S0 794.77 0 512C0 323.49 102.79 153 264.81 63.52c23.21-12.81 52.41-4.39 65.23 18.82z" p-id="2068"></path></svg>