<?xml version="1.0" standalone="no"?><!DOCTYPE svg PUBLIC "-//W3C//DTD SVG 1.1//EN" "http://www.w3.org/Graphics/SVG/1.1/DTD/svg11.dtd"><svg t="1644874577637" class="icon" viewBox="0 0 1024 1024" version="1.1" xmlns="http://www.w3.org/2000/svg" p-id="3912" xmlns:xlink="http://www.w3.org/1999/xlink" width="200" height="200"><defs><style type="text/css"></style></defs><path d="M256 298.666667a256 128 0 1 0 512 0 256 128 0 1 0-512 0Z" fill="#444444" p-id="3913"></path><path d="M702.72 426.666667C743.381333 449.28 768 479.146667 768 512c0 70.698667-114.602667 128-256 128S256 582.698667 256 512c0-32.810667 24.661333-62.72 65.28-85.333333C368.085333 452.821333 436.181333 469.333333 512 469.333333c74.624 0 141.781333-15.957333 188.586667-41.429333zM702.72 640c40.618667 22.613333 65.28 52.522667 65.28 85.333333 0 70.698667-114.602667 128-256 128s-256-57.301333-256-128c0-32.810667 24.661333-62.72 65.28-85.333333 46.848 26.197333 114.944 42.666667 190.72 42.666667 74.624 0 141.781333-15.957333 188.586667-41.429334z" fill="#444444" p-id="3914"></path></svg>